<?xml version="1.0" encoding="UTF-8"?>
<svg id="Layer_1" data-name="Layer 1" xmlns="http://www.w3.org/2000/svg" version="1.1" viewBox="0 0 1000 250">
  <defs>
    <style>
      .cls-1 {
        fill: #fff;
        stroke-width: 0px;
      }
    </style>
  </defs>
  <g>
    <g>
      <path class="cls-1" d="M168.79,8.48v150.69h-30.22V61.15l-40.37,98.01h-22.88L34.72,61.15v98.01H4.5V8.48h34.33l47.93,112.04L134.68,8.48h34.11Z"/>
      <path class="cls-1" d="M290.98,130.45h-60.02l-9.93,28.71h-31.73L243.48,8.26h35.19l54.19,150.9h-31.95l-9.93-28.71ZM282.77,106.27l-21.8-63.04-21.8,63.04h43.61Z"/>
      <path class="cls-1" d="M430.87,159.17l-33.25-58.72h-14.25v58.72h-30.22V8.48h56.56c11.66,0,21.59,2.05,29.79,6.15,8.2,4.1,14.36,9.64,18.46,16.62,4.1,6.98,6.15,14.79,6.15,23.42,0,9.93-2.88,18.89-8.64,26.88-5.76,7.99-14.32,13.49-25.69,16.51l36.05,61.1h-34.97ZM383.37,77.78h25.26c8.2,0,14.32-1.98,18.35-5.94,4.03-3.96,6.04-9.46,6.04-16.52s-2.02-12.27-6.04-16.08c-4.03-3.81-10.15-5.72-18.35-5.72h-25.26v44.26Z"/>
      <path class="cls-1" d="M603.79,185.72l-22.88-27.42c-6.33,1.58-12.81,2.37-19.43,2.37-14.11,0-27.06-3.31-38.86-9.93-11.8-6.62-21.16-15.79-28.07-27.53-6.91-11.73-10.36-25.01-10.36-39.83s3.45-27.88,10.36-39.61c6.91-11.73,16.26-20.9,28.07-27.53,11.8-6.62,24.75-9.93,38.86-9.93s27.23,3.31,38.97,9.93c11.73,6.62,21.01,15.8,27.85,27.53,6.83,11.73,10.25,24.93,10.25,39.61,0,13.38-2.84,25.58-8.53,36.59-5.69,11.01-13.42,19.97-23.21,26.88l34.54,38.86h-37.56ZM521.11,109.94c3.88,7.63,9.32,13.49,16.3,17.59,6.98,4.1,15.01,6.15,24.07,6.15s17.05-2.05,23.96-6.15c6.91-4.1,12.31-9.96,16.19-17.59,3.89-7.63,5.83-16.48,5.83-26.55s-1.94-18.89-5.83-26.45c-3.88-7.56-9.28-13.35-16.19-17.38-6.91-4.03-14.9-6.04-23.96-6.04s-17.09,2.02-24.07,6.04c-6.98,4.03-12.41,9.82-16.3,17.38-3.89,7.56-5.83,16.37-5.83,26.45s1.94,18.93,5.83,26.55Z"/>
      <path class="cls-1" d="M673.52,145.78h77.07v13.38h-94.77v-12.09l75.99-125.43h-74.7v-13.39h92.4v12.09l-75.99,125.43Z"/>
      <path class="cls-1" d="M792.25,20.57v56.35h57.21v12.52h-57.21v57.21h63.69v12.52h-78.8V8.05h78.8v12.52h-63.69Z"/>
      <path class="cls-1" d="M999.5,159.17h-15.11l-83.55-126.94v126.94h-15.11V8.26h15.11l83.55,126.72V8.26h15.11v150.9Z"/>
    </g>
    <g>
      <path class="cls-1" d="M27.13,225.12c1.24,1.55,1.85,3.31,1.85,5.27,0,1.68-.44,3.19-1.31,4.54-.87,1.35-2.13,2.41-3.78,3.18-1.65.78-3.56,1.16-5.75,1.16H4.95v-33.01h12.59c2.25,0,4.18.38,5.79,1.14,1.61.76,2.83,1.78,3.66,3.06.82,1.28,1.23,2.72,1.23,4.3,0,1.9-.51,3.48-1.52,4.75-1.01,1.27-2.37,2.2-4.08,2.8,1.77.32,3.28,1.25,4.51,2.8ZM10.36,220.13h6.7c1.77,0,3.16-.4,4.16-1.21,1-.81,1.5-1.97,1.5-3.49s-.5-2.65-1.5-3.49c-1-.84-2.38-1.26-4.16-1.26h-6.7v9.45ZM22,233.53c1.04-.89,1.57-2.12,1.57-3.7s-.56-2.9-1.66-3.85c-1.11-.95-2.58-1.43-4.42-1.43h-7.12v10.31h7.31c1.84,0,3.28-.44,4.32-1.33Z"/>
      <path class="cls-1" d="M47.03,210.63v9.69h11.4v4.42h-11.4v10.12h12.82v4.42h-18.24v-33.06h18.24v4.42h-12.82Z"/>
      <path class="cls-1" d="M97.7,206.26l-10.92,21.04v11.97h-5.41v-11.97l-10.97-21.04h6.03l7.65,16.2,7.65-16.2h5.98Z"/>
      <path class="cls-1" d="M115.3,237.44c-2.58-1.44-4.62-3.45-6.13-6.03-1.5-2.58-2.26-5.49-2.26-8.71s.75-6.13,2.26-8.69c1.5-2.57,3.55-4.57,6.13-6.01,2.58-1.44,5.41-2.16,8.48-2.16s5.95.72,8.53,2.16c2.58,1.44,4.61,3.44,6.1,6.01,1.49,2.56,2.23,5.46,2.23,8.69s-.74,6.14-2.23,8.71c-1.49,2.58-3.52,4.59-6.1,6.03-2.58,1.44-5.42,2.16-8.53,2.16s-5.9-.72-8.48-2.16ZM129.62,233.41c1.71-1,3.05-2.42,4.01-4.28.97-1.85,1.45-4,1.45-6.43s-.48-4.58-1.45-6.41c-.97-1.84-2.3-3.25-4.01-4.23-1.71-.98-3.66-1.47-5.84-1.47s-4.13.49-5.84,1.47c-1.71.98-3.05,2.39-4.01,4.23-.97,1.84-1.45,3.97-1.45,6.41s.48,4.58,1.45,6.43c.97,1.85,2.3,3.28,4.01,4.28,1.71,1,3.66,1.5,5.84,1.5s4.13-.5,5.84-1.5Z"/>
      <path class="cls-1" d="M179.82,239.27h-5.42l-16.29-24.65v24.65h-5.42v-33.06h5.42l16.29,24.6v-24.6h5.42v33.06Z"/>
      <path class="cls-1" d="M213.71,208.28c2.64,1.35,4.69,3.28,6.13,5.79,1.44,2.52,2.16,5.45,2.16,8.81s-.72,6.27-2.16,8.74c-1.44,2.47-3.48,4.36-6.13,5.68-2.65,1.31-5.72,1.97-9.24,1.97h-10.78v-33.01h10.78c3.52,0,6.59.67,9.24,2.02ZM213.35,231.72c2.06-2.09,3.09-5.03,3.09-8.83s-1.03-6.82-3.09-8.98c-2.06-2.15-5.02-3.23-8.88-3.23h-5.37v24.17h5.37c3.86,0,6.82-1.04,8.88-3.13Z"/>
      <path class="cls-1" d="M275.38,225.12c1.24,1.55,1.85,3.31,1.85,5.27,0,1.68-.44,3.19-1.31,4.54-.87,1.35-2.13,2.41-3.78,3.18-1.65.78-3.56,1.16-5.75,1.16h-13.2v-33.01h12.59c2.25,0,4.18.38,5.79,1.14,1.61.76,2.83,1.78,3.66,3.06.82,1.28,1.23,2.72,1.23,4.3,0,1.9-.51,3.48-1.52,4.75-1.01,1.27-2.37,2.2-4.08,2.8,1.77.32,3.28,1.25,4.51,2.8ZM258.61,220.13h6.7c1.77,0,3.16-.4,4.16-1.21,1-.81,1.5-1.97,1.5-3.49s-.5-2.65-1.5-3.49c-1-.84-2.38-1.26-4.16-1.26h-6.7v9.45ZM270.25,233.53c1.04-.89,1.57-2.12,1.57-3.7s-.56-2.9-1.66-3.85c-1.11-.95-2.58-1.43-4.42-1.43h-7.12v10.31h7.31c1.84,0,3.28-.44,4.32-1.33Z"/>
      <path class="cls-1" d="M295.23,206.26v21.04c0,2.5.66,4.39,1.97,5.65s3.14,1.9,5.49,1.9,4.22-.63,5.53-1.9,1.97-3.15,1.97-5.65v-21.04h5.42v20.94c0,2.69-.59,4.97-1.76,6.84-1.17,1.87-2.74,3.26-4.7,4.18-1.96.92-4.13,1.38-6.51,1.38s-4.54-.46-6.48-1.38c-1.95-.92-3.49-2.31-4.63-4.18s-1.71-4.15-1.71-6.84v-20.94h5.41Z"/>
      <path class="cls-1" d="M334.6,234.57h15.34v4.7h-21.75v-4.23l15.29-24.08h-15.29v-4.7h21.75v4.23l-15.34,24.08Z"/>
      <path class="cls-1" d="M367.85,234.57h15.34v4.7h-21.75v-4.23l15.29-24.08h-15.29v-4.7h21.75v4.23l-15.34,24.08Z"/>
      <path class="cls-1" d="M440.9,244.64h-5.41v-43.41h5.41v43.41Z"/>
      <path class="cls-1" d="M537.36,206.26l-9.78,33.01h-6.13l-6.93-24.98-7.36,24.98-6.08.05-9.36-33.06h5.75l6.84,26.88,7.41-26.88h6.08l6.89,26.74,6.89-26.74h5.79Z"/>
      <path class="cls-1" d="M553.98,210.63v9.69h11.4v4.42h-11.4v10.12h12.82v4.42h-18.24v-33.06h18.24v4.42h-12.82Z"/>
      <path class="cls-1" d="M621.47,225.12c1.24,1.55,1.85,3.31,1.85,5.27,0,1.68-.44,3.19-1.31,4.54-.87,1.35-2.13,2.41-3.78,3.18-1.65.78-3.56,1.16-5.75,1.16h-13.2v-33.01h12.59c2.25,0,4.18.38,5.79,1.14,1.61.76,2.83,1.78,3.66,3.06.82,1.28,1.23,2.72,1.23,4.3,0,1.9-.51,3.48-1.52,4.75-1.01,1.27-2.37,2.2-4.08,2.8,1.77.32,3.28,1.25,4.51,2.8ZM604.7,220.13h6.7c1.77,0,3.16-.4,4.16-1.21,1-.81,1.5-1.97,1.5-3.49s-.5-2.65-1.5-3.49c-1-.84-2.38-1.26-4.16-1.26h-6.7v9.45ZM616.34,233.53c1.04-.89,1.57-2.12,1.57-3.7s-.56-2.9-1.66-3.85c-1.11-.95-2.58-1.43-4.42-1.43h-7.12v10.31h7.31c1.84,0,3.28-.44,4.32-1.33Z"/>
      <path class="cls-1" d="M641.32,206.26v21.04c0,2.5.66,4.39,1.97,5.65,1.31,1.27,3.14,1.9,5.49,1.9s4.22-.63,5.53-1.9c1.31-1.27,1.97-3.15,1.97-5.65v-21.04h5.42v20.94c0,2.69-.59,4.97-1.76,6.84-1.17,1.87-2.74,3.26-4.7,4.18-1.96.92-4.13,1.38-6.51,1.38s-4.54-.46-6.48-1.38c-1.95-.92-3.49-2.31-4.63-4.18-1.14-1.87-1.71-4.15-1.71-6.84v-20.94h5.41Z"/>
      <path class="cls-1" d="M680.88,206.26v33.01h-5.42v-33.01h5.42Z"/>
      <path class="cls-1" d="M700.17,234.9h11.16v4.37h-16.58v-33.01h5.42v28.64Z"/>
      <path class="cls-1" d="M742.6,208.28c2.64,1.35,4.69,3.28,6.13,5.79,1.44,2.52,2.16,5.45,2.16,8.81s-.72,6.27-2.16,8.74c-1.44,2.47-3.48,4.36-6.13,5.68-2.65,1.31-5.72,1.97-9.24,1.97h-10.78v-33.01h10.78c3.52,0,6.59.67,9.24,2.02ZM742.24,231.72c2.06-2.09,3.09-5.03,3.09-8.83s-1.03-6.82-3.09-8.98c-2.06-2.15-5.02-3.23-8.88-3.23h-5.37v24.17h5.37c3.86,0,6.82-1.04,8.88-3.13Z"/>
      <path class="cls-1" d="M804.27,225.12c1.24,1.55,1.85,3.31,1.85,5.27,0,1.68-.44,3.19-1.31,4.54-.87,1.35-2.13,2.41-3.78,3.18-1.65.78-3.56,1.16-5.75,1.16h-13.2v-33.01h12.59c2.25,0,4.18.38,5.79,1.14,1.61.76,2.83,1.78,3.66,3.06.82,1.28,1.23,2.72,1.23,4.3,0,1.9-.51,3.48-1.52,4.75s-2.37,2.2-4.08,2.8c1.77.32,3.28,1.25,4.51,2.8ZM787.51,220.13h6.7c1.77,0,3.16-.4,4.16-1.21,1-.81,1.5-1.97,1.5-3.49s-.5-2.65-1.5-3.49c-1-.84-2.38-1.26-4.16-1.26h-6.7v9.45ZM799.14,233.53c1.04-.89,1.57-2.12,1.57-3.7s-.56-2.9-1.66-3.85c-1.11-.95-2.58-1.43-4.42-1.43h-7.12v10.31h7.31c1.84,0,3.28-.44,4.32-1.33Z"/>
      <path class="cls-1" d="M835.9,239.27l-7.6-13.2h-4.13v13.2h-5.42v-33.01h11.4c2.53,0,4.68.44,6.44,1.33,1.76.89,3.07,2.07,3.94,3.56.87,1.49,1.31,3.15,1.31,4.99,0,2.15-.63,4.11-1.87,5.87-1.25,1.76-3.18,2.95-5.77,3.59l8.17,13.68h-6.46ZM824.17,221.75h5.98c2.03,0,3.55-.51,4.58-1.52,1.03-1.01,1.54-2.37,1.54-4.08s-.51-3.05-1.52-4.01c-1.01-.97-2.55-1.45-4.61-1.45h-5.98v11.07Z"/>
      <path class="cls-1" d="M875.42,232.53h-13.82l-2.38,6.74h-5.65l11.83-33.06h6.27l11.83,33.06h-5.7l-2.38-6.74ZM873.9,228.11l-5.37-15.34-5.41,15.34h10.78Z"/>
      <path class="cls-1" d="M922.49,239.27h-5.42l-16.29-24.65v24.65h-5.42v-33.06h5.42l16.29,24.6v-24.6h5.42v33.06Z"/>
      <path class="cls-1" d="M956.37,208.28c2.64,1.35,4.69,3.28,6.13,5.79s2.16,5.45,2.16,8.81-.72,6.27-2.16,8.74c-1.44,2.47-3.48,4.36-6.13,5.68-2.65,1.31-5.72,1.97-9.24,1.97h-10.78v-33.01h10.78c3.52,0,6.59.67,9.24,2.02ZM956.02,231.72c2.06-2.09,3.09-5.03,3.09-8.83s-1.03-6.82-3.09-8.98c-2.06-2.15-5.02-3.23-8.88-3.23h-5.37v24.17h5.37c3.86,0,6.82-1.04,8.88-3.13Z"/>
      <path class="cls-1" d="M981.66,238.44c-1.77-.78-3.17-1.88-4.18-3.3-1.01-1.43-1.52-3.09-1.52-4.99h5.79c.13,1.43.69,2.6,1.69,3.52,1,.92,2.4,1.38,4.2,1.38s3.32-.45,4.37-1.35c1.04-.9,1.57-2.07,1.57-3.49,0-1.11-.32-2.01-.97-2.71-.65-.7-1.46-1.24-2.42-1.61-.97-.38-2.3-.79-4.01-1.24-2.15-.57-3.9-1.15-5.25-1.73-1.35-.59-2.49-1.5-3.44-2.73-.95-1.24-1.42-2.88-1.42-4.94,0-1.9.47-3.56,1.42-4.99.95-1.43,2.28-2.52,3.99-3.28,1.71-.76,3.69-1.14,5.94-1.14,3.2,0,5.82.8,7.86,2.4,2.04,1.6,3.18,3.79,3.4,6.58h-5.98c-.1-1.2-.66-2.23-1.71-3.09-1.04-.86-2.42-1.28-4.13-1.28-1.55,0-2.82.4-3.8,1.19-.98.79-1.47,1.93-1.47,3.42,0,1.01.31,1.85.93,2.49.62.65,1.4,1.16,2.35,1.54.95.38,2.25.79,3.89,1.24,2.18.6,3.97,1.2,5.34,1.8s2.55,1.53,3.51,2.78c.97,1.25,1.45,2.92,1.45,5.01,0,1.68-.45,3.26-1.35,4.75-.9,1.49-2.22,2.68-3.94,3.59-1.73.9-3.76,1.35-6.1,1.35-2.22,0-4.21-.39-5.98-1.16Z"/>
    </g>
  </g>
  <path class="cls-1" d="M532.05,102.78c2.83,5.56,6.78,9.83,11.87,12.81,5.08,2.99,10.93,4.48,17.53,4.48s12.42-1.49,17.45-4.48c5.03-2.99,8.96-7.26,11.79-12.81,2.83-5.55,4.25-12,4.25-19.34s-1.42-13.76-4.25-19.26c-2.83-5.5-6.76-9.72-11.79-12.66-5.03-2.93-10.85-4.4-17.45-4.4s-12.45,1.47-17.53,4.4c-5.08,2.94-9.04,7.15-11.87,12.66-2.83,5.5-4.25,11.92-4.25,19.26s1.42,13.78,4.25,19.34Z"/>
</svg>